<?xml version="1.0" standalone="no"?>
<!DOCTYPE svg PUBLIC "-//W3C//DTD SVG 20010904//EN"
 "http://www.w3.org/TR/2001/REC-SVG-20010904/DTD/svg10.dtd">
<svg version="1.0" xmlns="http://www.w3.org/2000/svg"
 width="512.000000pt" height="512.000000pt" viewBox="0 0 512.000000 512.000000"
 preserveAspectRatio="xMidYMid meet">
<metadata>
Created by potrace 1.14, written by Peter Selinger 2001-2017
</metadata>
<g transform="translate(0.000000,512.000000) scale(0.100000,-0.100000)"
fill="#000000" stroke="none">
<path d="M3618 4659 c-76 -12 -159 -39 -230 -75 -122 -61 -155 -87 -418 -334
-21 -19 -95 -89 -165 -155 -70 -66 -137 -128 -149 -138 -11 -10 -50 -46 -86
-80 -200 -189 -344 -323 -366 -342 -15 -13 -136 -58 -287 -108 -144 -47 -390
-128 -547 -180 l-285 -93 1 -65 c1 -76 11 -259 48 -915 4 -60 3 -62 -40 -108
-59 -62 -105 -135 -138 -221 -18 -47 -44 -89 -77 -125 -89 -98 -169 -201 -194
-249 -99 -197 -62 -446 89 -606 185 -195 358 -265 561 -230 148 27 235 83 370
240 90 105 126 139 165 155 51 20 136 85 200 152 l55 58 105 5 c58 3 137 7
175 10 39 2 124 7 190 10 66 4 143 8 170 10 28 1 109 6 180 10 210 11 208 11
211 26 2 8 6 25 9 39 3 14 7 37 10 52 2 15 6 35 9 45 3 10 7 29 10 43 10 50
18 89 61 295 24 116 55 264 69 330 15 65 26 122 26 126 0 9 37 45 186 184 64
61 127 119 139 130 11 11 52 49 91 84 38 36 105 99 149 140 44 42 141 132 215
201 146 135 285 273 312 307 74 95 140 246 163 374 13 71 13 240 0 304 -81
411 -435 705 -844 703 -53 -1 -117 -4 -143 -9z m318 -557 c85 -43 135 -119
142 -215 13 -176 -148 -304 -319 -253 -69 20 -117 60 -154 127 -74 137 -3 313
146 358 49 15 139 7 185 -17z m-589 -575 c17 -9 47 -36 66 -59 131 -163 38
-392 -167 -412 -174 -17 -314 156 -267 329 21 80 104 158 180 170 20 4 43 7
51 9 21 3 99 -18 137 -37z m-1465 -558 c-23 -122 -1 -297 53 -435 103 -263
360 -477 635 -529 96 -18 290 -12 361 10 15 5 16 0 4 -62 -7 -37 -20 -112 -30
-165 l-17 -97 -37 5 c-20 2 -70 9 -111 15 -41 6 -90 12 -109 14 -19 3 -50 7
-70 10 -20 2 -52 7 -71 10 -183 25 -253 36 -260 40 -5 3 -12 20 -16 38 -11 51
-80 175 -130 234 -93 108 -256 198 -394 217 -24 3 -28 13 -78 212 -29 115 -57
227 -61 249 -5 22 -16 65 -24 95 -29 104 -29 101 38 121 33 9 119 35 190 56
93 28 131 36 133 27 2 -7 -1 -36 -6 -65z m902 37 c176 -103 175 -355 -2 -445
-127 -65 -280 -11 -346 121 -62 124 -9 274 118 335 69 33 163 28 230 -11z
m-1081 -1136 c160 -75 202 -284 85 -424 -134 -160 -393 -122 -467 69 -89 231
158 460 382 355z"/>
</g>
</svg>
