<?xml version="1.0" encoding="UTF-8" standalone="no"?>
<!-- Created with Inkscape (http://www.inkscape.org/) -->

<svg
   width="512"
   height="512"
   viewBox="0 0 135.46666 135.46667"
   version="1.1"
   id="svg5"
   xml:space="preserve"
   xmlns="http://www.w3.org/2000/svg"
   xmlns:svg="http://www.w3.org/2000/svg"><defs
     id="defs2" /><g
     id="layer1"><path
       style="fill:#ff9700;fill-opacity:1;stroke:none;stroke-width:5.78401;stroke-linecap:round;stroke-linejoin:round;stroke-miterlimit:4.1;stroke-dasharray:none;stroke-opacity:1;paint-order:fill markers stroke"
       d="m 52.052656,103.27815 31.14774,-1.73239 7.21678,-34.441715 -9.57901,-1.58907 -4.66812,25.605595 -23.60337,-3.174655 z"
       id="path1578-3-4-3-64" /><ellipse
       style="fill:none;fill-opacity:1;stroke-width:0.269396;stroke-linecap:round;stroke-linejoin:round;stroke-miterlimit:4.1;paint-order:fill markers stroke"
       id="path1055-1-6-4"
       cx="60.480991"
       cy="77.911942"
       rx="13.159639"
       ry="13.828773"
       transform="rotate(4.9708314)" /><g
       id="g2450-4-0-8"
       transform="matrix(0.51068653,-0.52415463,0.52415463,0.51068653,19.947886,36.915655)"
       style="stroke:none"><g
         id="g4190-6-8-1"
         transform="matrix(1.1142796,0.05205336,-0.05205336,1.1142796,-8.5841782,-1.9424166)"
         style="stroke:none;stroke-opacity:1"><rect
           style="fill:#ffffff;fill-opacity:1;stroke:#535353;stroke-width:1.65253;stroke-linecap:round;stroke-linejoin:round;stroke-miterlimit:4.1;stroke-dasharray:none;stroke-opacity:1;paint-order:fill markers stroke"
           id="rect1924-5-4-7"
           width="101.22338"
           height="55.728477"
           x="6.8965383"
           y="38.153427"
           ry="27.864239" /><g
           id="g2443-1-8-4"
           transform="translate(-1.751945)"
           style="stroke:none;stroke-opacity:1"><ellipse
             style="fill:#535353;fill-opacity:1;stroke:none;stroke-width:8.15869;stroke-linecap:round;stroke-linejoin:round;stroke-miterlimit:4.1;stroke-dasharray:none;stroke-opacity:1;paint-order:fill markers stroke"
             id="path1978-9-3-2"
             cx="33.425964"
             cy="66.01767"
             rx="8.1757345"
             ry="8.3425865" /><ellipse
             style="fill:#535353;fill-opacity:1;stroke:none;stroke-width:8.15869;stroke-linecap:round;stroke-linejoin:round;stroke-miterlimit:4.1;stroke-dasharray:none;stroke-opacity:1;paint-order:fill markers stroke"
             id="path1978-1-6-8-0"
             cx="58.175636"
             cy="66.01767"
             rx="8.1757345"
             ry="8.3425865" /><ellipse
             style="fill:#4b4b4b;fill-opacity:1;stroke:none;stroke-width:8.15869;stroke-linecap:round;stroke-linejoin:round;stroke-miterlimit:4.1;stroke-dasharray:none;stroke-opacity:1;paint-order:fill markers stroke"
             id="path1978-1-7-0-1-6"
             cx="85.094383"
             cy="66.01767"
             rx="8.1757345"
             ry="8.3425865" /></g></g></g><path
       style="fill:#ff9700;fill-opacity:1;stroke:none;stroke-width:5.78401;stroke-linecap:round;stroke-linejoin:round;stroke-miterlimit:4.1;stroke-dasharray:none;stroke-opacity:1;paint-order:fill markers stroke"
       d="m 30.070376,83.608595 -1.72659,-31.14805 33.43103,-10.98543 2.63979,9.34421 -24.9314,7.47418 5.76824,23.10681 z"
       id="path1578-8-6-6" /><path
       id="rect4192-0-8-5"
       style="fill:#ff9700;fill-opacity:1;stroke:none;stroke-width:11.6848;stroke-linecap:round;stroke-linejoin:round;stroke-miterlimit:4.1;stroke-dasharray:none;stroke-opacity:1;paint-order:fill markers stroke"
       d="m 36.981266,78.515965 c -2.81511,0.65166 -5.46137,2.16472 -7.51996,4.5129 l -9.51983,10.859285 c -5.21747,5.95143 -4.62697,14.94306 1.32447,20.16052 l 1.95336,1.71256 c 5.95144,5.21746 14.94306,4.62645 20.16053,-1.32499 l 9.51983,-10.85928 c 3.7575,-4.28609 4.50223,-10.14863 2.40192,-15.043005 a 14.594171,14.856573 56.658486 0 1 -4.13825,14.529855 14.594171,14.856573 56.658486 0 1 -20.88968,-0.27027 14.594171,14.856573 56.658486 0 1 0.61392,-20.750145 14.594171,14.856573 56.658486 0 1 6.09369,-3.52743 z" /><ellipse
       style="fill:none;fill-opacity:1;stroke:#ef6c00;stroke-width:10.2274;stroke-linecap:round;stroke-linejoin:round;stroke-miterlimit:4.1;stroke-dasharray:none;stroke-opacity:1;paint-order:fill markers stroke"
       id="path1059-2-2-9"
       cx="95.985481"
       cy="34.65316"
       rx="12.351407"
       ry="12.558768"
       transform="matrix(0.69425237,0.71973165,-0.72412776,0.68966585,0,0)" /></g></svg>
