<svg viewBox="0 0 135.467 135.467" xml:space="preserve" xmlns="http://www.w3.org/2000/svg"><path d="m52.053 103.278 31.147-1.732 7.217-34.442-9.579-1.589-4.668 25.606-23.603-3.175z" fill="#ff9700" paint-order="fill markers stroke"/><ellipse cx="60.481" cy="77.912" rx="13.16" ry="13.829" transform="rotate(4.97)" fill="none" paint-order="fill markers stroke"/><g transform="scale(.81632) rotate(-43.071 71.65 2.182)" paint-order="fill markers stroke"><rect width="101.223" height="55.728" x="6.897" y="38.153" ry="27.864" fill="#fff" stroke="#535353" stroke-width="1.653" stroke-linecap="round" stroke-linejoin="round" stroke-miterlimit="4.1"/><g transform="translate(-1.752)"><ellipse cx="33.426" cy="66.018" rx="8.176" ry="8.343" fill="#535353"/><ellipse cx="58.176" cy="66.018" rx="8.176" ry="8.343" fill="#535353"/><ellipse cx="85.094" cy="66.018" rx="8.176" ry="8.343" fill="#4b4b4b"/></g></g><path d="M30.07 83.609 28.344 52.46l33.43-10.986 2.64 9.344-24.93 7.475L45.25 81.4z" fill="#ff9700" paint-order="fill markers stroke"/><path d="M36.981 78.516a14.245 14.245 0 0 0-7.52 4.513l-9.52 10.86a14.255 14.255 0 0 0 1.325 20.16l1.953 1.712a14.255 14.255 0 0 0 20.16-1.325l9.52-10.859a14.254 14.254 0 0 0 2.403-15.043 14.594 14.857 56.658 0 1-4.139 14.53 14.594 14.857 56.658 0 1-20.89-.27 14.594 14.857 56.658 0 1 .615-20.75 14.594 14.857 56.658 0 1 6.093-3.528z" fill="#ff9700" paint-order="fill markers stroke"/><ellipse cx="95.985" cy="34.653" rx="12.351" ry="12.559" transform="matrix(.69425 .71973 -.72413 .68967 0 0)" fill="none" stroke="#ef6c00" stroke-width="10.227" stroke-linecap="round" stroke-linejoin="round" stroke-miterlimit="4.1" paint-order="fill markers stroke"/></svg>